<svg xmlns="http://www.w3.org/2000/svg" xmlns:xlink="http://www.w3.org/1999/xlink" width="1172px" height="274px" viewBox="0 0 1172 274">
    
        <g id="dc67b2eb-9c65-4c96-8136-075840a10d46" name="New Group">
          <g id="0181ef83-6165-4a01-a21e-54fd9edd8d10">
<g style="">
&#x9;&#x9;<g id="0181ef83-6165-4a01-a21e-54fd9edd8d10-child-0">
<path style="stroke: rgb(193,193,193); stroke-opacity: 1.00; stroke-width: 0; stroke-dasharray: none; stroke-linecap: butt; stroke-dashoffset: 0; stroke-linejoin: miter; stroke-miterlimit: 4; fill: rgb(0,0,0); fill-opacity: 1.00; fill-rule: nonzero; opacity: 1;" transform="matrix(1.704562 0 0 1.70873 74.309397 172.56269) matrix(1 0 0 1 0.46 0)  translate(-178.34, -152)" d="M 184.44 165.00 C 185.66 163.16 186.83 161.44 187.84 160.01 C 187.29 161.16 187.00 162.39 187.00 163.65 C 187.00 166.33 186.60 167.00 185.01 167.00 C 183.78 167.00 181.99 168.60 180.27 171.25 C 178.76 173.59 177.29 175.73 177.01 176.00 C 174.82 178.15 177.41 182.55 180.23 181.47 C 180.94 181.19 182.73 179.16 184.99 176.19 C 181.52 180.97 178.42 184.99 178.06 184.97 C 177.61 184.94 172.21 177.83 168.79 173.00 C 170.61 174.95 172.87 176.20 173.96 175.53 C 175.83 174.37 175.14 170.97 171.89 165.30 C 175.02 170.10 177.71 173.99 178.01 174.00 C 178.29 174.00 181.19 169.95 184.44 165.00 z M 173.00 143.99 L 173.00 141.49 C 173.00 136.59 170.43 131.41 165.73 126.85 L 165.15 126.29 C 168.67 129.47 171.69 133.93 172.52 137.20 C 173.11 139.56 173.51 139.74 177.08 139.26 C 180.58 138.79 181.00 138.97 181.00 140.87 C 181.00 142.97 179.41 143.53 174.75 143.05 C 173.79 142.95 173.00 143.38 173.00 143.99 z M 183.69 198.84 C 186.76 195.01 190.04 190.48 190.78 188.75 C 191.43 187.24 192.57 186.00 193.32 186.00 C 193.97 186.00 195.94 184.32 197.94 182.10 L 190.82 190.55 C 188.22 193.63 185.76 196.49 183.69 198.84 z M 158.85 134.13 C 158.95 133.59 159.00 133.07 159.00 132.62 C 159.00 127.86 160.97 128.95 166.97 137.04 L 169.29 140.18 C 168.96 139.74 168.60 139.29 168.24 138.81 C 163.11 132.00 160.63 130.64 158.85 134.13 z M 179.90 100.45 C 182.71 103.70 188.06 111.70 190.80 117.06 L 192.98 121.31 L 190.19 116.00 C 187.71 111.28 185.28 108.02 183.63 107.20 C 181.92 106.35 181.00 105.08 181.00 103.57 C 181.00 102.54 180.54 101.29 179.90 100.45 z M 173.73 154.13 C 175.57 156.57 177.78 159.00 178.45 159.00 C 179.04 159.00 180.15 157.95 181.18 156.49 C 180.93 156.93 180.68 157.35 180.45 157.75 C 179.41 159.54 178.30 161.00 177.97 161.00 C 177.64 161.00 176.61 159.54 175.69 157.75 C 175.10 156.60 174.43 155.38 173.73 154.13 z M 200.51 179.06 C 202.97 175.95 203.00 174.81 203.00 168.14 L 203.00 176.10 z M 163.52 119.95 C 166.04 115.09 170.36 108.43 173.71 103.94 C 170.32 108.76 165.20 116.74 163.52 119.95 z M 157.33 138.38 C 155.43 144.58 154.31 151.01 153.68 159.34 C 154.39 149.84 155.70 142.28 157.33 138.38 z M 166.89 143.09 C 168.98 145.98 170.94 148.93 171.00 149.50 C 169.61 147.22 168.19 145.01 166.89 143.09 z M 183.74 152.30 C 187.50 146.11 192.24 139.04 193.75 137.38 C 192.31 139.06 187.60 146.10 183.74 152.30 z M 165.54 155.27 C 160.17 146.78 159.97 145.39 160.57 141.37 C 160.06 144.88 160.43 146.44 162.74 150.54 C 163.47 151.84 164.44 153.47 165.54 155.27 z M 158.78 161.46 C 158.81 161.33 158.84 161.21 158.87 161.10 C 159.51 158.80 159.66 158.89 162.51 163.10 C 162.54 163.14 162.56 163.18 162.59 163.22 C 159.68 159.11 159.46 159.02 158.85 161.17 C 158.83 161.26 158.80 161.36 158.78 161.46 z M 177.67 99.30 C 177.92 99.11 178.12 99.00 178.25 99.00 C 178.48 99.00 178.93 99.38 179.54 100.04 C 179.49 100.00 179.45 99.96 179.41 99.92 C 178.69 99.33 178.21 99.09 177.67 99.30 z M 193.21 152.13 C 193.44 151.62 193.67 151.08 193.91 150.51 C 194.18 149.84 194.43 149.22 194.64 148.64 C 194.26 149.81 193.78 150.99 193.21 152.13 z M 175.15 201.75 C 176.22 203.48 177.44 204.91 177.92 205.00 C 177.91 205.00 177.91 205.00 177.90 205.00 C 177.50 205.00 176.26 203.54 175.15 201.75 z M 166.00 168.69 C 166.27 169.15 166.51 169.57 166.70 169.93 C 166.29 169.29 166.03 168.85 166.00 168.69 z M 192.65 165.15 C 192.94 164.69 193.24 164.22 193.53 163.75 C 195.13 161.19 196.77 159.09 197.22 159.00 C 196.77 159.09 195.14 161.19 193.54 163.75 C 193.27 164.19 192.97 164.66 192.65 165.15 z M 194.21 137.01 C 194.43 137.05 194.72 137.70 194.98 138.68 C 194.71 137.74 194.43 137.10 194.21 137.01 z M 160.99 139.20 C 161.31 137.89 161.66 137.00 161.92 137.00 L 161.93 137.00 C 161.66 137.04 161.30 137.92 160.99 139.20 z M 184.89 135.10 C 183.47 138.01 182.83 140.85 183.19 143.14 C 182.83 140.85 183.47 138.00 184.89 135.10 z" stroke-linecap="round"></path>
</g>
&#x9;&#x9;<g id="0181ef83-6165-4a01-a21e-54fd9edd8d10-child-1">
<path style="stroke: rgb(193,193,193); stroke-opacity: 1.00; stroke-width: 0; stroke-dasharray: none; stroke-linecap: butt; stroke-dashoffset: 0; stroke-linejoin: miter; stroke-miterlimit: 4; fill: rgb(6,6,7); fill-opacity: 1.00; fill-rule: nonzero; opacity: 1;" transform="matrix(1.704562 0 0 1.70873 74.309397 172.56269) matrix(1 0 0 1 0 0.11382)  translate(-177.88, -152.113819)" d="M 175.15 201.75 C 174.04 199.96 171.53 196.95 169.57 195.05 C 167.60 193.16 166.00 191.21 166.00 190.72 C 166.00 190.23 163.02 186.83 159.38 183.17 L 152.76 176.50 L 153.39 164.00 C 154.00 152.02 155.38 143.87 158.19 135.71 C 160.03 130.38 162.45 131.13 168.24 138.81 C 170.86 142.28 173.00 144.61 173.00 143.99 C 173.00 143.38 173.11 139.56 172.52 137.20 C 171.66 133.80 168.43 129.12 164.74 125.93 L 161.76 123.36 L 163.49 120.02 C 165.52 116.09 173.04 104.54 175.84 101.05 C 177.52 98.96 178.05 98.79 179.41 99.92 C 180.28 100.65 181.00 102.29 181.00 103.57 C 181.00 105.08 181.92 106.35 183.63 107.20 C 185.28 108.02 187.71 111.28 190.19 116.00 L 194.13 123.50 L 189.57 128.39 C 185.08 133.19 182.55 139.04 183.19 143.14 C 183.44 144.74 184.29 144.09 187.50 139.83 C 189.70 136.91 192.28 133.28 193.24 131.76 C 194.19 130.24 195.38 129.00 195.88 129.00 C 198.37 129.00 203.00 154.46 203.00 168.14 C 203.00 176.07 202.96 176.19 198.84 181.07 C 196.56 183.78 194.07 186.00 193.32 186.00 C 192.57 186.00 191.43 187.24 190.78 188.75 C 189.40 191.99 179.14 205.00 177.97 205.00 C 177.53 205.00 176.26 203.54 175.15 201.75 z M 180.26 194.05 C 181.01 192.97 183.51 189.93 185.82 187.30 C 197.06 174.45 198.00 172.78 198.00 165.61 C 198.00 161.97 197.66 159.00 197.25 159.00 C 196.84 159.00 195.16 161.14 193.53 163.75 C 188.18 172.31 181.74 180.89 180.23 181.47 C 177.41 182.55 174.82 178.15 177.01 176.00 C 177.29 175.73 178.76 173.59 180.27 171.25 C 181.99 168.60 183.78 167.00 185.01 167.00 C 186.60 167.00 187.00 166.33 187.00 163.65 C 187.00 161.47 187.86 159.36 189.45 157.64 C 193.62 153.15 196.22 146.10 195.50 141.25 C 195.16 138.91 194.57 137.01 194.19 137.01 C 193.52 137.03 186.33 147.76 181.98 155.25 C 180.78 157.31 179.19 159.00 178.45 159.00 C 177.24 159.00 171.00 151.06 171.00 149.52 C 171.00 148.50 162.66 137.00 161.92 137.00 C 161.54 137.00 160.93 138.97 160.57 141.37 C 159.84 146.24 160.29 147.25 169.68 161.70 C 174.78 169.55 176.20 174.14 173.96 175.53 C 172.43 176.47 168.55 173.61 166.91 170.34 C 166.12 168.78 164.14 165.52 162.51 163.10 C 159.66 158.89 159.51 158.80 158.87 161.10 C 158.50 162.42 158.15 165.33 158.10 167.56 C 158.01 171.25 158.88 172.71 167.75 183.81 C 173.11 190.51 177.81 196.00 178.19 196.00 C 178.57 196.00 179.50 195.12 180.26 194.05 z" stroke-linecap="round"></path>
</g>
</g>
</g>

<g id="dcdd48d3-c950-4ee5-a53d-b82bdfae3089">
<g style="">
&#x9;&#x9;<g id="dcdd48d3-c950-4ee5-a53d-b82bdfae3089-child-0">
<path style="stroke: rgb(193,193,193); stroke-opacity: 1.00; stroke-width: 0; stroke-dasharray: none; stroke-linecap: butt; stroke-dashoffset: 0; stroke-linejoin: miter; stroke-miterlimit: 4; fill: rgb(0,0,0); fill-opacity: 1.00; fill-rule: nonzero; opacity: 1;" transform="matrix(1.8 0 0 1.8 269.44 172.56) matrix(1 0 0 1 0 0)  translate(805.604, -1694.1743)" d="M -824.18 1668.40 L -802.87 1668.40 C -797.44 1668.40 -793.36 1669.89 -790.63 1672.86 C -788.23 1675.45 -787.03 1679.01 -787.03 1683.52 C -787.03 1688.08 -788.49 1691.70 -791.42 1694.39 C -794.11 1696.89 -797.44 1698.13 -801.43 1698.13 L -817.63 1698.13 L -817.63 1719.95 L -824.18 1719.95 z M -803.88 1692.30 C -800.76 1692.30 -798.31 1691.51 -796.53 1689.93 C -794.76 1688.34 -793.87 1686.11 -793.87 1683.23 C -793.87 1680.40 -794.76 1678.19 -796.53 1676.61 C -798.31 1675.02 -800.76 1674.23 -803.88 1674.23 L -817.63 1674.23 L -817.63 1692.30 z" stroke-linecap="round"></path>
</g>
</g>
</g>

<g id="11a5abdc-f033-45eb-881b-f43441848cdb">
<g style="">
&#x9;&#x9;<g id="11a5abdc-f033-45eb-881b-f43441848cdb-child-0">
<path style="stroke: rgb(193,193,193); stroke-opacity: 1.00; stroke-width: 0; stroke-dasharray: none; stroke-linecap: butt; stroke-dashoffset: 0; stroke-linejoin: miter; stroke-miterlimit: 4; fill: rgb(0,0,0); fill-opacity: 1.00; fill-rule: nonzero; opacity: 1;" transform="matrix(1.8 0 0 1.8 456.64 172.56) matrix(1 0 0 1 0 0)  translate(699.264895, -1694.1743)" d="M -699.23 1720.74 C -707.24 1720.74 -713.56 1717.98 -718.16 1712.46 C -722.15 1707.66 -724.14 1701.57 -724.14 1694.17 C -724.14 1685.68 -721.55 1678.96 -716.36 1674.01 C -711.90 1669.74 -706.19 1667.61 -699.23 1667.61 C -691.26 1667.61 -684.97 1670.37 -680.36 1675.89 C -676.38 1680.69 -674.39 1686.78 -674.39 1694.17 C -674.39 1702.67 -676.96 1709.39 -682.09 1714.33 C -686.60 1718.61 -692.32 1720.74 -699.23 1720.74 z M -699.30 1714.91 C -693.40 1714.91 -688.74 1712.77 -685.33 1708.50 C -682.40 1704.76 -680.94 1699.98 -680.94 1694.17 C -680.94 1687.50 -682.84 1682.25 -686.63 1678.41 C -689.94 1675.09 -694.16 1673.44 -699.30 1673.44 C -705.16 1673.44 -709.79 1675.57 -713.20 1679.85 C -716.12 1683.59 -717.59 1688.37 -717.59 1694.17 C -717.59 1700.85 -715.69 1706.10 -711.90 1709.94 C -708.59 1713.25 -704.39 1714.91 -699.30 1714.91 z" stroke-linecap="round"></path>
</g>
</g>
</g>

<g id="4e852f36-4b42-4acb-bb10-d0c554dbff6f">
<g style="">
&#x9;&#x9;<g id="4e852f36-4b42-4acb-bb10-d0c554dbff6f-child-0">
<path style="stroke: rgb(193,193,193); stroke-opacity: 1.00; stroke-width: 0; stroke-dasharray: none; stroke-linecap: butt; stroke-dashoffset: 0; stroke-linejoin: miter; stroke-miterlimit: 4; fill: rgb(0,0,0); fill-opacity: 1.00; fill-rule: nonzero; opacity: 1;" transform="matrix(1.8 0 0 1.8 645.64 172.56) matrix(1 0 0 1 0 0)  translate(602.466085, -1694.5703)" d="M -602.54 1720.74 C -609.07 1720.74 -614.11 1719.04 -617.66 1715.63 C -620.73 1712.61 -622.27 1708.65 -622.27 1703.75 L -622.27 1668.40 L -615.71 1668.40 L -615.71 1703.75 C -615.71 1707.30 -614.56 1710.05 -612.26 1711.99 C -609.95 1713.94 -606.71 1714.91 -602.54 1714.91 C -598.12 1714.91 -594.71 1713.81 -592.31 1711.60 C -590.25 1709.63 -589.22 1707.01 -589.22 1703.75 L -589.22 1668.40 L -582.67 1668.40 L -582.67 1703.75 C -582.67 1709.32 -584.71 1713.64 -588.79 1716.71 C -592.29 1719.40 -596.87 1720.74 -602.54 1720.74 z" stroke-linecap="round"></path>
</g>
</g>
</g>

<g id="62974e17-7158-4d5e-92f8-f7f29a746ceb">
<g style="">
&#x9;&#x9;<g id="62974e17-7158-4d5e-92f8-f7f29a746ceb-child-0">
<path style="stroke: rgb(193,193,193); stroke-opacity: 1.00; stroke-width: 0; stroke-dasharray: none; stroke-linecap: butt; stroke-dashoffset: 0; stroke-linejoin: miter; stroke-miterlimit: 4; fill: rgb(0,0,0); fill-opacity: 1.00; fill-rule: nonzero; opacity: 1;" transform="matrix(1.8 0 0 1.8 825.64 172.56) matrix(1 0 0 1 0 0)  translate(505.817735, -1694.1743)" d="M -526.27 1668.40 L -519.71 1668.40 L -519.71 1694.46 L -494.01 1668.40 L -485.51 1668.40 L -506.61 1689.42 L -485.37 1719.95 L -493.15 1719.95 L -511.29 1693.53 L -519.71 1701.88 L -519.71 1719.95 L -526.27 1719.95 z" stroke-linecap="round"></path>
</g>
</g>
</g>

<g id="a3baf6a3-b764-4365-af4c-8e66b7ae4e67">
<g style="">
&#x9;&#x9;<g id="a3baf6a3-b764-4365-af4c-8e66b7ae4e67-child-0">
<path style="stroke: rgb(193,193,193); stroke-opacity: 1.00; stroke-width: 0; stroke-dasharray: none; stroke-linecap: butt; stroke-dashoffset: 0; stroke-linejoin: miter; stroke-miterlimit: 4; fill: rgb(0,0,0); fill-opacity: 1.00; fill-rule: nonzero; opacity: 1;" transform="matrix(1.8 0 0 1.8 1010.60 172.56) matrix(1 0 0 1 0 0)  translate(407.90338, -1694.1743)" d="M -386.16 1719.95 L -393.22 1719.95 L -408.41 1676.32 L -422.66 1719.95 L -429.65 1719.95 L -411.79 1668.40 L -404.66 1668.40 z" stroke-linecap="round"></path>
</g>
</g>
</g>

<g id="b484afd0-50dd-4891-8f09-4d112615f40f">
<g style="">
&#x9;&#x9;<g id="b484afd0-50dd-4891-8f09-4d112615f40f-child-0">
<path style="stroke: rgb(193,193,193); stroke-opacity: 1.00; stroke-width: 0; stroke-dasharray: none; stroke-linecap: butt; stroke-dashoffset: 0; stroke-linejoin: miter; stroke-miterlimit: 4; fill: rgb(0,0,0); fill-opacity: 1.00; fill-rule: nonzero; opacity: 1;" transform="matrix(1.8 0 0 1.8 1163.58 172.56) matrix(1 0 0 1 0 0)  translate(330.37118, -1694.1743)" d="M -333.72 1668.40 L -327.02 1668.40 L -327.02 1719.95 L -333.72 1719.95 z" stroke-linecap="round"></path>
</g>
</g>
</g>

        </g>
      
  </svg>